# xmcd CD database file
#
# Track frame offsets:
#	187
#	26067
#	107022
#
# Disc length: 2612 seconds
#
# Revision: 3
# Processed by: cddbd v1.5.1PL2 Copyright (c) Steve Scherf et al.
# Submitted via: CDex 1.60beta1
#
DISCID=1d0a3203
DTITLE=Clifford Brown - Brownie - The Complete EmArcy Recordings of Clifford Brown(Vo.3)
DYEAR=1900
DGENRE=Jazz
TTITLE0=Coronado (alt. 1)
TTITLE1=Coronado (alt. 2)
TTITLE2=Coronado
EXTD=10-CD Boxed Set EmArcy 838 306-2\nThird vol. =839 307-2
EXTT0=
EXTT1=
EXTT2=
PLAYORDER=
